<?xml version="1.0" encoding="UTF-8"?>
<svg width="128pt" height="128pt" version="1.1" viewBox="0 0 128 128" xmlns="http://www.w3.org/2000/svg">
 <g fill="#72fff5">
  <path d="m66 12c-27.57 0-50 17.844-50 39.777s22.43 39.777 50 39.777c4.8242 0 9.6445-0.57031 14.359-1.6992l13.809 11.043c0.72266 0.57812 1.6094 0.875 2.4961 0.875 0.58984 0 1.1836-0.12891 1.7305-0.39453 1.3867-0.66406 2.2695-2.0664 2.2695-3.6055l0.003907-17.352c9.7734-7.4805 15.332-17.816 15.332-28.645 0-21.934-22.43-39.777-50-39.777zm22 52h-44c-2.207 0-4-1.793-4-4s1.793-4 4-4h44c2.207 0 4 1.793 4 4s-1.793 4-4 4zm0-16h-44c-2.207 0-4-1.793-4-4s1.793-4 4-4h44c2.207 0 4 1.793 4 4s-1.793 4-4 4z"/>
  <path d="m16.203 69.012c-2.7266 3.8438-4.2031 8.2031-4.2031 12.766 0 6.8516 3.375 13.383 9.3359 18.195v9.8047c0 1.5391 0.88281 2.9414 2.2695 3.6055 0.55078 0.26563 1.1406 0.39453 1.7305 0.39453 0.89062 0 1.7773-0.29688 2.5-0.875l7.8125-6.25c2.75 0.60156 5.5508 0.90234 8.3555 0.90234 11.152 0 21.094-4.5234 26.848-11.738-1.6016 0.11328-3.2188 0.18359-4.8516 0.18359-22.375 0-41.617-11.148-49.797-26.988z"/>
 </g>
</svg>
