<?xml version="1.0" encoding="UTF-8"?>
<svg width="128pt" height="128pt" version="1.1" viewBox="0 0 128 128" xmlns="http://www.w3.org/2000/svg">
 <g fill="#04252f">
  <path d="m94.719 84.48h-15.359c-3.5977 0-7.1328 0.95312-10.238 2.7656v-38.605c0-5.6562 4.582-10.242 10.238-10.242h5.1211v-10.238h-5.1211c-5.8828 0.011719-11.48 2.5508-15.359 6.9766-3.8789-4.4258-9.4766-6.9648-15.359-6.9766h-25.602v56.32c0 2.7148 1.0781 5.3203 3 7.2422 1.9219 1.918 4.5234 2.9961 7.2422 2.9961h15.359c2.7148 0 5.3203 1.082 7.2383 3 1.9219 1.9219 3 4.5273 3 7.2422h10.242c0-5.6562 4.582-10.242 10.238-10.242h15.359c2.7188 0 5.3203-1.0781 7.2422-2.9961 1.9219-1.9219 3-4.5273 3-7.2422v-10.242h-10.242zm-46.078 0h-15.359v-46.082h15.359c2.7148 0 5.3203 1.082 7.2383 3 1.9219 1.9219 3 4.5273 3 7.2422v38.59c-3.1094-1.8047-6.6406-2.7539-10.238-2.75z"/>
  <path d="m94.719 43.52h10.238v20.48h-10.238z"/>
  <path d="m104.96 28.16c0 6.8281-10.242 6.8281-10.242 0s10.242-6.8281 10.242 0"/>
 </g>
</svg>
