<svg xmlns="http://www.w3.org/2000/svg" xmlns:xlink="http://www.w3.org/1999/xlink" version="1.1" id="Layer_1" x="0px" y="0px" viewBox="0 0 400 100" style="enable-background:new 0 0 400 100;" xml:space="preserve">
<style type="text/css">
	.st0{fill:#FFFFFF;}
	.st1{fill-rule:evenodd;clip-rule:evenodd;fill:#FFFFFF;}
	.st2{fill-rule:evenodd;clip-rule:evenodd;fill:#F0F4F6;}
	.st3{clip-path:url(#SVGID_4_);fill:#FFFFFF;}
	.st4{clip-path:url(#SVGID_6_);fill:#FFFFFF;}
</style>
    <g id="Logo">
	<g id="Logotype">
		<path class="st0" d="M399.9,70c-1.8-0.2-3.2-0.7-4.2-1.2c-1.1-0.5-1.8-1.1-2.4-1.8c-0.6-0.7-0.9-1.6-1.1-2.6    c-0.2-1.1-0.3-2.2-0.3-3.5l0.2-40.5c0,0-3.8-3.8-14.7-7.9c0.1,1.1,0,16.1,0,16.1l-0.1,35.3c0,2.7,0.3,5.2,0.8,7.4s1.6,4.1,3.1,5.6    c1.5,1.5,3.7,2.7,6.3,3.6c2.6,0.9,5.7,1.2,9.9,1.3L399.9,70L399.9,70z"/>
        <path class="st0" d="M363.9,69.6c-1.8-0.2-2.5-0.4-3.5-0.8c-1.1-0.5-1.8-1.1-2.4-1.8c-0.6-0.7-0.9-1.6-1.1-2.6    c-0.2-1.1-0.3-2.2-0.3-3.5c0,0,0.2-45.2,0.2-55.5C350.2,2.9,341.9,1,341.9,1l0.1,62.8c0,2.7,0.3,5.2,0.8,7.4    c0.6,2.2,1.6,4.1,3.1,5.6c1.5,1.5,3.6,2.7,6.3,3.6c1.9,0.6,5.6,0.9,8.4,1.1C362.9,73.8,363.9,69.6,363.9,69.6L363.9,69.6z"/>
        <path class="st0" d="M296.9,69.2c-1.5-0.9-2.3-2.5-2.3-4.8c0-1.2,0.3-2.1,0.8-2.9c0.5-0.8,1.2-1.4,2.2-1.9c0.9-0.5,2-0.8,3.2-0.9    c1.2-0.2,2.5-0.2,3.9-0.3c1.8,0.1,3.7,0.6,6.1,1.4v10.3c-0.8,0.2-2,0.2-3.3,0.3s-2.7,0.1-4.1,0.1    C300.6,70.5,298.5,70.1,296.9,69.2L296.9,69.2z M297,28.1c-1.7,0.2-3.2,0.4-4.8,0.6s-2.9,0.5-4.2,0.8c-1.3,0.3-2.3,0.6-3.2,0.8    l0.1,11.7c1.8-0.7,7-2,9.4-2.3c2.4-0.4,4.4-0.7,6.8-0.7c3.7,0,5.5,1,7.4,2.5c1.5,1.5,2.1,4.1,2.1,6.6v3.3    c-1.6-0.5-3.9-2.2-9.9-2.5c-2.8-0.2-4.5,0.2-7.1,0.8c-2.6,0.6-4.9,1.5-6.9,2.7c-2,1.2-3.7,2.9-4.9,5c-1.2,2.1-1.8,4.6-1.8,7.7    c0,3.1,0.5,5.8,1.6,7.9c1.1,2.1,2.5,3.9,4.5,5.2c2,1.3,4.3,2.3,7,2.9s5.7,0.9,9.1,0.9c5.3,0,9.8-0.3,13.5-0.9    c3.7-0.6,6.6-1.2,8.7-1.6V48.9c0-3.2-0.4-6.1-1.1-8.7c-0.7-2.6-1.9-4.8-3.7-6.6c-1.7-1.8-4.1-3.2-6.9-4.2c-2.9-1-6.5-1.5-10.8-1.5    C300.4,27.8,298.7,27.9,297,28.1L297,28.1z"/>
        <path class="st0" d="M265.6,33.7c0,0-2.7,0.8-6.5,1.2c-3.9,0.4-8.2-0.6-8.2-0.6l-0.1,46.5h14.6L265.6,33.7L265.6,33.7z"/>
        <path class="st0" d="M238.2,30.6c-6.2-2.4-9.9-2.4-9.4-2.3c-1.1-0.1-2.1-0.2-2.8-0.2c-4.4,0-8.4,0.4-11.9,1.2    c-3.5,0.8-6.6,1.7-9.3,2.6v39.9l14.6-10.1V41.3c0.7-0.2,1.6-0.4,2.9-0.6c1.3-0.2,2.4-0.3,3.3-0.3c2,0,3.9,0.2,5.7,0.6    c0.9,0.2,1.8,0.4,2.5,0.6C238,34,238.2,30.6,238.2,30.6L238.2,30.6z"/>
        <path class="st0" d="M156.4,59.7c0,3.3,0.3,6.4,0.9,9.1c0.6,2.7,1.7,5.1,3.3,7s3.7,3.4,6.3,4.5c2.6,1.1,5.9,1.6,9.9,1.6    c3.1,0,5.8-0.3,8-0.8c2.2-0.5,4.1-1.2,5.9-1.9l-0.1-11.6c-3.4,1.3-10.2,1.9-11.4,1.9c-3.2,0-5.4-0.9-6.5-2.7    c-1.1-1.8-1.6-4.3-1.6-7.4V41.4c0,0,11-1.8,17.5-4.1c0-2.9,0.2-3.8,0.2-8.8c-9.7,1-17.6,0.8-17.6,0.8l0.1-16.4    c0,0-8.6,3.3-14.7,7.6c-0.1,9,0,21,0,21L156.4,59.7L156.4,59.7z"/>
        <path class="st1" d="M324.5,70c0,2.5,0.4,8.9-13.7,11.6c5.6-0.8,11.1-1.7,13.7-2.3"/>
        <path class="st2" d="M204.7,73.8c1.2-0.5,9.7-4.2,14.6-11.2c0-2.9,0-5.3,0-7.2c-8.2,5.4-13.7,7.9-14.6,8.2"/>
        <path class="st2" d="M250.4,19c0,0,7.5,2.6,15.3,0c0,1-0.1,3.4-0.1,4.6c-2.4,0.8-7.9,4.2-15.3,1.8"/>
	</g>
        <g id="Logomark">
		<path class="st1" d="M77.7,95.9c-5.2-5.3-13.5-5.3-18.8,0c0-5.9,0-12.2,0-18.3c5.3,5.4,13.5,5.4,18.8,0"/>
            <path class="st1" d="M86.8,73.8c7.2,0,12.9,5.8,12.9,12.9c0,7.2-5.8,12.9-12.9,12.9c-7.2,0-12.9-5.8-12.9-12.9    C73.9,79.6,79.7,73.8,86.8,73.8L86.8,73.8z"/>
            <path class="st1" d="M77.7,59c-5.2-5.3-13.5-5.3-18.8,0c0-5.9,0-12.2,0-18.3c5.3,5.4,13.5,5.4,18.8,0"/>
            <path class="st1" d="M86.8,36.9c7.2,0,12.9,5.8,12.9,12.9S94,62.8,86.8,62.8c-7.2,0-12.9-5.8-12.9-12.9    C73.9,42.7,79.7,36.9,86.8,36.9L86.8,36.9z"/>
            <path class="st1" d="M86.8,0C94,0,99.8,5.8,99.8,12.9S94,25.9,86.8,25.9c-7.2,0-12.9-5.8-12.9-12.9S79.7,0,86.8,0L86.8,0z"/>
            <path class="st1" d="M49.9,73.8c7.2,0,12.9,5.8,12.9,12.9c0,7.2-5.8,12.9-12.9,12.9S37,93.9,37,86.8C37,79.6,42.8,73.8,49.9,73.8    L49.9,73.8z"/>
            <path class="st1" d="M59.1,58.9c-5.3,5.2-5.3,13.5,0,18.8c-5.9,0-12.2,0-18.3,0c5.4-5.3,5.4-13.5,0-18.8"/>
            <path class="st1" d="M49.9,36.9c7.2,0,12.9,5.8,12.9,12.9s-5.8,12.9-12.9,12.9S37,57,37,49.8C37,42.7,42.8,36.9,49.9,36.9    L49.9,36.9z"/>
            <path class="st1" d="M59.1,22.1c-5.3,5.2-5.3,13.5,0,18.8c-5.9,0-12.2,0-18.3,0c5.4-5.3,5.4-13.5,0-18.8"/>
            <path class="st1" d="M49.9,0c7.2,0,12.9,5.8,12.9,12.9s-5.8,12.9-12.9,12.9S37,20.1,37,12.9S42.8,0,49.9,0L49.9,0z"/>
            <path class="st1" d="M13,36.9c7.2,0,12.9,5.8,12.9,12.9S20.1,62.8,13,62.8S0.1,57,0.1,49.8C0.1,42.7,5.8,36.9,13,36.9L13,36.9z"/>
            <g>
			<g>
				<path id="SVGID_1_" class="st1" d="M3.9,77.9c5.1-5.1,13.2-5.1,18.3,0c5,5,5,13.2,0,18.3c-5.1,5.1-13.2,5.1-18.3,0      C-1.2,91.2-1.2,83,3.9,77.9L3.9,77.9z"/>
			</g>
                <g>
				<defs>
					<path id="SVGID_2_" d="M3.9,77.9c5.1-5.1,13.2-5.1,18.3,0c5,5,5,13.2,0,18.3c-5.1,5.1-13.2,5.1-18.3,0       C-1.2,91.2-1.2,83,3.9,77.9L3.9,77.9z"/>
				</defs>
                    <use xlink:href="#SVGID_2_" style="overflow:visible;fill:#FFFFFF;"/>
                    <clipPath id="SVGID_4_">
					<use xlink:href="#SVGID_2_" style="overflow:visible;"/>
				</clipPath>
                    <path class="st3" d="M19.7,98.1C5.3,96.5,3.4,81.4,13.2,74.1l-7-7l-28.5,25.3C-22.2,92.4,4.3,106.8,19.7,98.1L19.7,98.1z"/>
			</g>
		</g>
            <g>
			<g>
				<path id="SVGID_3_" class="st1" d="M13,0c7.2,0,12.9,5.8,12.9,12.9S20.1,25.9,13,25.9S0.1,20.1,0.1,12.9S5.8,0,13,0L13,0z"/>
			</g>
                <g>
				<defs>
					<path id="SVGID_5_" d="M13,0c7.2,0,12.9,5.8,12.9,12.9S20.1,25.9,13,25.9S0.1,20.1,0.1,12.9S5.8,0,13,0L13,0z"/>
				</defs>
                    <use xlink:href="#SVGID_5_" style="overflow:visible;fill:#FFFFFF;"/>
                    <clipPath id="SVGID_6_">
					<use xlink:href="#SVGID_5_" style="overflow:visible;"/>
				</clipPath>
                    <path class="st4" d="M10,25.5C1,14.1,10.2,2.2,22.4,4v-9.9l-38-2.3C-15.7-8.2-7.1,20.7,10,25.5L10,25.5z"/>
			</g>
		</g>
	</g>
</g>
</svg>