<?xml version="1.0" encoding="UTF-8"?>
<svg width="128pt" height="128pt" version="1.1" viewBox="0 0 128 128" xmlns="http://www.w3.org/2000/svg">
 <g fill="#04252f">
  <path d="m9 116.5v-102.5h-2.5c-1.3789 0-2.5 1.1211-2.5 2.5v105c0 1.3789 1.1211 2.5 2.5 2.5h80c1.3789 0 2.5-1.1211 2.5-2.5v-2.5h-77.5c-1.3789 0-2.5-1.1211-2.5-2.5z"/>
  <path d="m81.5 5.4648v16.035h16.035z"/>
  <path d="m69 71.5c0-16.543 13.457-30 30-30v-15h-20c-1.3789 0-2.5-1.1211-2.5-2.5v-20h-60c-1.3789 0-2.5 1.1211-2.5 2.5v105c0 1.3789 1.1211 2.5 2.5 2.5h80c1.3789 0 2.5-1.1211 2.5-2.5v-10c-16.543 0-30-13.457-30-30zm-10.938 25h-30c-1.3789 0-2.5-1.1211-2.5-2.5s1.1211-2.5 2.5-2.5h30c1.3789 0 2.5 1.1211 2.5 2.5s-1.1211 2.5-2.5 2.5zm0-10h-30c-1.3789 0-2.5-1.1211-2.5-2.5s1.1211-2.5 2.5-2.5h30c1.3789 0 2.5 1.1211 2.5 2.5s-1.1211 2.5-2.5 2.5zm0-10h-30c-1.3789 0-2.5-1.1211-2.5-2.5s1.1211-2.5 2.5-2.5h30c1.3789 0 2.5 1.1211 2.5 2.5s-1.1211 2.5-2.5 2.5zm0-10h-30c-1.3789 0-2.5-1.1211-2.5-2.5s1.1211-2.5 2.5-2.5h30c1.3789 0 2.5 1.1211 2.5 2.5s-1.1211 2.5-2.5 2.5zm-3.4883-36.668h1.9805c4.1055 0 7.4492 3.3398 7.4492 7.4492 0 3.5898-2.5508 6.5938-5.9375 7.293v3.5898c0 1.3789-1.1211 2.5-2.5 2.5s-2.5-1.1211-2.5-2.5v-3.4375l-3.4414 0.003907c-1.3789 0-2.5-1.1211-2.5-2.5 0-1.3789 1.1211-2.5 2.5-2.5h6.9258c1.3516 0 2.4492-1.0977 2.4492-2.4492s-1.0977-2.4492-2.4492-2.4492h-1.9805c-4.1055 0-7.4492-3.3398-7.4492-7.4492 0-3.5898 2.5508-6.5938 5.9375-7.293l0.003906-3.5898c0-1.3789 1.1211-2.5 2.5-2.5s2.5 1.1211 2.5 2.5v3.4375h3.4375c1.3789 0 2.5 1.1211 2.5 2.5s-1.1211 2.5-2.5 2.5h-6.9258c-1.3516 0-2.4492 1.0977-2.4492 2.4492 0 1.3477 1.0977 2.4453 2.4492 2.4453z"/>
  <path d="m99 46.5c-13.809 0-25 11.191-25 25s11.191 25 25 25 25-11.191 25-25-11.191-25-25-25zm7.3203 13.43-5 12.5c-0.37891 0.94922-1.2969 1.5703-2.3203 1.5703h-10c-1.3789 0-2.5-1.1211-2.5-2.5s1.1211-2.5 2.5-2.5h8.3086l4.3711-10.93c0.51172-1.2812 1.9688-1.9062 3.25-1.3945 1.2812 0.51562 1.9062 1.9727 1.3906 3.2539z"/>
 </g>
</svg>
