<?xml version="1.0" encoding="UTF-8"?>
<svg width="1200pt" height="1200pt" version="1.1" viewBox="0 0 1200 1200" xmlns="http://www.w3.org/2000/svg">
 <g>
  <path d="m251.25 711.68 47.211-47.211v-0.003906c7.4141-7.5234 12.254-17.203 13.828-27.648 2.6133-17.125-3.1055-34.473-15.391-46.688-7.1992-7.1562-16.219-12.207-26.082-14.609-17.262-4.3789-35.555 0.56641-48.258 13.043l-129.64 129.64c-9.6211 10.082-14.859 23.562-14.566 37.492 0.29297 13.934 6.0938 27.184 16.129 36.848 10.223 10.289 24.105 16.102 38.605 16.172 13.367 0.003907 26.199-5.2422 35.734-14.605z"/>
  <path d="m614.87 290.42-7.3047 7.3008-99.645 99.645-3.6484 3.6523-38.867 38.602c-19.59 19.523-46.164 30.414-73.82 30.258-3.1289 0-6.2617-0.26172-9.3906-0.52344-1.043 0-2.3477-0.26172-3.3906-0.26172v0.003906c-26.031-3.0859-49.941-15.887-66.938-35.844-17-19.957-25.836-45.598-24.742-71.793 1.0938-26.191 12.039-51.004 30.641-69.477l221.98-221.71c5.4805-5.4766 11.219-10.957 16.957-15.914l0.003906 0.003907c-76.199-46.93-166.97-64.246-255.09-48.664-88.125 15.586-167.45 62.984-222.93 133.2-55.477 70.215-83.242 158.36-78.02 247.7 5.2227 89.336 43.07 173.64 106.35 236.92l3.1289 3.1289 75.383-75.383h0.003907c19.305-19.242 45.516-29.953 72.773-29.734 18.473-0.097657 36.645 4.6719 52.688 13.824 8.5039 4.7344 16.316 10.613 23.219 17.477 13.438 13.516 23.066 30.344 27.91 48.777 2.0391 8.1094 3.1758 16.418 3.3906 24.777 0.37891 9.875-0.85547 19.742-3.6523 29.215 8.7305-2.5273 17.781-3.7578 26.867-3.6523 28.055-0.082031 55.016 10.863 75.074 30.48 20.055 19.617 31.594 46.332 32.129 74.379 0.38281 9.8711-0.85156 19.742-3.6484 29.215 8.7266-2.5273 17.777-3.7578 26.863-3.6523 28.055-0.085937 55.02 10.863 75.074 30.477 20.055 19.617 31.598 46.332 32.133 74.383 0.37891 9.8711-0.85547 19.738-3.6523 29.215 8.7305-2.5273 17.781-3.7578 26.867-3.6523 28.055-0.085937 55.016 10.859 75.074 30.477 20.055 19.617 31.594 46.332 32.129 74.379 0.5 15.828-2.7148 31.551-9.3867 45.91 9.5195 3.9102 19.703 5.9492 29.996 6 27.73-0.03125 53.371-14.73 67.418-38.637 14.043-23.91 14.395-53.465 0.91797-77.699 20.129 12.578 44.883 15.316 67.273 7.4453 22.391-7.875 39.98-25.508 47.805-47.918 7.8203-22.41 5.0234-47.16-7.6055-67.254 11.59 6.6602 24.719 10.168 38.082 10.172 20.742-0.019531 40.625-8.2695 55.285-22.941s22.898-34.562 22.898-55.301c0.003907-20.742-8.2266-40.633-22.883-55.309z"/>
  <path d="m649.56 965.21c-2.7109 0.003906-5.418 0.26562-8.082 0.78125-10.43 1.6289-20.094 6.4609-27.652 13.828l-129.64 129.64c-9.6211 10.078-14.859 23.562-14.566 37.492 0.29297 13.934 6.0938 27.18 16.129 36.848 10.223 10.285 24.105 16.102 38.605 16.172 13.367 0.003906 26.199-5.2422 35.734-14.605l129.64-129.64c7.4141-7.5234 12.254-17.203 13.828-27.648 2.3125-15.727-2.3086-31.684-12.664-43.742-10.359-12.059-25.434-19.031-41.332-19.121z"/>
  <path d="m442.71 767.23c2.3125-15.727-2.3047-31.684-12.664-43.742-10.355-12.059-25.434-19.031-41.328-19.117-2.7148 0-5.4219 0.26172-8.0859 0.78125-10.426 1.625-20.09 6.457-27.648 13.824l-129.64 129.64c-9.6211 10.078-14.859 23.559-14.566 37.492s6.0938 27.18 16.129 36.848c10.223 10.285 24.102 16.102 38.605 16.172 13.363 0.003906 26.199-5.2422 35.734-14.605l129.64-129.64c7.4141-7.5234 12.254-17.203 13.824-27.648z"/>
  <path d="m573.13 897.66c2.3125-15.727-2.3047-31.684-12.664-43.742-10.355-12.059-25.434-19.035-41.328-19.121-2.7148 0-5.4219 0.26172-8.0859 0.78125-10.426 1.625-20.09 6.457-27.648 13.824l-129.64 129.64c-9.6211 10.082-14.855 23.562-14.562 37.496 0.29297 13.93 6.0898 27.18 16.129 36.848 10.219 10.285 24.102 16.102 38.602 16.172 13.367 0.003907 26.199-5.2422 35.734-14.609l129.64-129.64 0.003906 0.003907c7.4141-7.5234 12.254-17.203 13.824-27.648z"/>
  <path d="m1093 107.05c-64.578-64.633-151.05-102.69-242.33-106.65-91.281-3.9609-180.73 26.465-250.66 85.262-8.0859 6.7812-15.91 13.824-23.477 21.391l-221.71 221.71c-9.7695 9.7969-15.258 23.07-15.258 36.906 0 13.84 5.4883 27.113 15.258 36.91 9.8398 9.6953 23.098 15.129 36.91 15.129s27.07-5.4336 36.906-15.129l192.24-192.24 440.82 440.82c10.977-8.5859 21.43-17.816 31.305-27.652 45.344-45.316 77.957-101.78 94.559-163.7 16.598-61.926 16.598-127.13 0-189.05-16.602-61.922-49.215-118.39-94.559-163.7z"/>
 </g>
</svg>
