<?xml version="1.0" encoding="utf-8"?>
<svg viewBox="0 0 128 128" xmlns="http://www.w3.org/2000/svg">
  <path d="M 127.433 71.465 L 119.832 54.989 L 119.832 47.103 C 119.832 27.386 104.06 11.477 84.344 11.477 L 78.289 11.477 C 72.517 11.477 66.742 12.887 61.671 15.56 C 56.463 12.883 50.546 11.477 44.633 11.477 L 38.577 11.477 C 17.882 11.335 0.979 28.233 0.979 48.934 C 1.121 60.481 6.192 71.323 15.062 78.645 L 15.062 117.227 L 96.034 117.227 L 96.034 98.92 L 114.342 98.92 C 117.297 98.92 119.692 96.526 119.692 93.57 L 119.692 75.262 L 124.9 75.262 C 126.309 75.262 127.577 73.995 127.577 72.585 C 127.719 72.168 127.577 71.748 127.436 71.464 L 127.433 71.465 Z M 19.006 113.288 L 19.006 105.402 L 27.597 105.402 C 28.722 106.949 30.837 107.375 32.384 106.249 C 33.931 105.123 34.357 103.008 33.23 101.462 C 32.104 99.914 29.99 99.488 28.443 100.615 C 28.16 100.898 27.88 101.178 27.597 101.462 L 19.006 101.462 L 19.006 95.548 L 27.597 95.548 C 28.722 97.095 30.837 97.52 32.384 96.395 C 33.931 95.269 34.357 93.155 33.23 91.607 C 32.104 90.06 29.99 89.635 28.443 90.761 C 28.16 91.045 27.88 91.323 27.597 91.607 L 19.006 91.607 L 19.006 76.679 L 18.301 76.115 C 9.994 69.498 5.207 59.498 5.065 48.939 C 5.065 30.352 20.132 15.423 38.723 15.282 L 44.632 15.282 C 63.219 15.282 78.147 30.348 78.147 48.939 L 78.147 57.108 L 84.907 71.896 C 85.47 73.021 84.907 74.289 83.781 74.711 C 83.497 74.851 83.219 74.851 82.935 74.851 L 78.005 74.851 L 78.005 93.863 C 78.005 96.54 75.753 98.793 73.076 98.793 L 54.349 98.793 L 54.349 113.155 L 19.007 113.146 L 19.006 113.288 Z M 107.721 59.077 C 105.607 59.077 103.919 57.388 103.919 55.274 C 103.919 53.16 105.607 51.47 107.721 51.47 C 109.836 51.47 111.525 53.16 111.525 55.274 C 111.521 57.383 109.832 59.077 107.721 59.077 Z M 62.66 54.285 L 70.687 54.285 L 70.687 60.761 L 66.462 58.226 L 62.801 58.226 L 62.66 54.285 Z M 36.888 27.25 C 26.046 27.25 17.171 36.12 17.171 46.967 C 17.171 57.809 26.04 66.683 36.888 66.683 C 47.73 66.683 56.604 57.813 56.604 46.967 C 56.463 35.983 47.73 27.25 36.888 27.25 Z M 52.517 44.995 L 47.025 44.995 C 46.178 40.911 42.942 37.529 38.856 36.825 L 38.856 31.333 C 45.899 32.179 51.533 37.813 52.517 44.995 Z M 38.86 40.911 C 40.832 41.617 42.38 43.027 42.942 44.995 L 38.86 44.995 L 38.86 40.911 Z M 34.778 44.995 L 30.695 44.995 C 31.258 43.022 32.809 41.475 34.778 40.911 L 34.778 44.995 Z M 34.778 48.935 L 34.778 53.022 C 32.805 52.317 31.258 50.908 30.695 48.939 L 34.778 48.935 Z M 38.718 48.935 L 42.8 48.935 C 42.096 50.908 40.686 52.313 38.718 53.018 L 38.718 48.935 Z M 34.778 31.333 L 34.778 36.825 C 30.695 37.671 27.313 40.907 26.608 44.995 L 21.116 44.995 C 21.963 37.813 27.597 32.18 34.778 31.333 Z M 21.116 48.935 L 26.608 48.935 C 27.455 53.018 30.691 56.258 34.778 57.104 L 34.778 62.597 C 27.597 61.75 21.964 56.116 21.116 48.935 Z M 38.718 62.597 L 38.718 57.104 C 42.8 56.258 46.182 53.022 46.887 48.935 L 52.379 48.935 C 51.533 56.116 45.899 61.749 38.718 62.597 Z" fill="#04252f" style=""/>
</svg>