<svg xmlns="http://www.w3.org/2000/svg" version="1.1" x="0px" y="0px" viewBox="0 0 100 100"
     enable-background="new 0 0 100 100" xml:space="preserve"><path d="M50,37.53125c-6.5458984,0-11.8710938,5.3256836-11.8710938,11.871582S43.4541016,61.2744141,50,61.2744141  s11.8710938-5.3256836,11.8710938-11.871582S56.5458984,37.53125,50,37.53125z M50,60.2744141  c-5.9941406,0-10.8710938-4.8769531-10.8710938-10.871582S44.0058594,38.53125,50,38.53125  s10.8710938,4.8769531,10.8710938,10.871582S55.9941406,60.2744141,50,60.2744141z"/>
    <path d="M32.40625,67.496582h35.1875c0.2763672,0,0.5-0.2236328,0.5-0.5V31.8095703c0-0.2763672-0.2236328-0.5-0.5-0.5h-35.1875  c-0.2763672,0-0.5,0.2236328-0.5,0.5V66.996582C31.90625,67.2729492,32.1298828,67.496582,32.40625,67.496582z M32.90625,32.3095703  h34.1875V66.496582h-34.1875V32.3095703z"/>
    <path d="M74.4171143,19.0209961c0.1940308,0.979187,0.6726685,1.8793335,1.3944092,2.6010742  c0.9609375,0.9619141,2.2402344,1.4916992,3.6005859,1.4916992s2.6396484-0.5297852,3.6005859-1.4916992  c0.9619141-0.9619141,1.4921875-2.2407227,1.4921875-3.6010742s-0.5302734-2.6396484-1.4921875-3.6010742  c-0.9609375-0.9619141-2.2402344-1.4916992-3.6005859-1.4916992s-2.6396484,0.5297852-3.6005859,1.4916992  c-0.7217407,0.7213745-1.2003784,1.6218262-1.3944092,2.6010742H64.0263672v9.7446289H59.046875v-6.4057617h-2v6.4057617h-6.0576172  v-6.4057617h-2v6.4057617h-6.0585938v-6.4057617h-2v6.4057617H35.6875v-9.7446289H25.2913818  c-0.1895752-0.9536133-0.6505737-1.8635864-1.3880615-2.6010742c-0.9619141-0.9619141-2.2412109-1.4916992-3.6015625-1.4916992  s-2.6396484,0.5297852-3.6005859,1.4916992c-0.9619141,0.9614258-1.4921875,2.2407227-1.4921875,3.6010742  s0.5302734,2.6391602,1.4921875,3.6010742c0.9609375,0.9619141,2.2402344,1.4916992,3.6005859,1.4916992  s2.6396484-0.5297852,3.6015625-1.4916992c0.7374268-0.7376099,1.1983643-1.647522,1.3880005-2.6010742H33.6875v7.7446289  h-6.3261719v11.4145508h-6.4052734v2h6.4052734v6.0581055h-6.4052734v2h6.4052734v6.0576172h-6.4052734v2h6.4052734v15.7246094  H33.6875V79.53125h-8.3961182c-0.1895752-0.9536133-0.6505737-1.8635864-1.3880615-2.6010742  c-0.9619141-0.9619141-2.2412109-1.4916992-3.6015625-1.4916992s-2.6396484,0.5297852-3.6005859,1.4916992  c-0.9619141,0.9614258-1.4921875,2.2407227-1.4921875,3.6010742s0.5302734,2.6391602,1.4921875,3.6010742  c0.9609375,0.9619141,2.2402344,1.4916992,3.6005859,1.4916992s2.6396484-0.5297852,3.6015625-1.4916992  c0.7374268-0.7376099,1.1983643-1.647522,1.3880005-2.6010742H35.6875v-9.5107422h5.2431641v6.0102539h2v-6.0102539h6.0585938  v6.0102539h2v-6.0102539h6.0576172v6.0102539h2v-6.0102539h4.9794922V81.53125h10.3907471  c0.1940308,0.979187,0.6726685,1.8793335,1.3944092,2.6010742c0.9609375,0.9619141,2.2402344,1.4916992,3.6005859,1.4916992  s2.6396484-0.5297852,3.6005859-1.4916992c0.9619141-0.9619141,1.4921875-2.2407227,1.4921875-3.6010742  s-0.5302734-2.6396484-1.4921875-3.6010742c-0.9609375-0.9619141-2.2402344-1.4916992-3.6005859-1.4916992  s-2.6396484,0.5297852-3.6005859,1.4916992c-0.7217407,0.7213745-1.2003784,1.6218262-1.3944092,2.6010742h-8.3907471v-7.5107422  h6.5898438V56.2958984h6.40625v-2h-6.40625v-6.0576172h6.40625v-2h-6.40625v-6.0581055h6.40625v-2h-6.40625V26.765625h-6.5898438  v-7.7446289H74.4171143z M77.2255859,15.8339844c0.5839844-0.5839844,1.3603516-0.9057617,2.1865234-0.9057617  S81.0146484,15.25,81.5986328,15.8339844c0.5839844,0.5844727,0.90625,1.3608398,0.90625,2.1870117  c0,0.8256836-0.3222656,1.6025391-0.90625,2.1870117c-1.1679688,1.1679688-3.2050781,1.1679688-4.3730469,0  c-0.5839844-0.5844727-0.90625-1.3613281-0.90625-2.1870117C76.3193359,17.1948242,76.6416016,16.418457,77.2255859,15.8339844z   M22.4892578,20.2080078c-1.1679688,1.1679688-3.2060547,1.1679688-4.3740234,0  c-0.5839844-0.5844727-0.90625-1.3613281-0.90625-2.1870117c0-0.8261719,0.3222656-1.6025391,0.90625-2.1870117  c0.5839844-0.5839844,1.3603516-0.9057617,2.1865234-0.9057617s1.6035156,0.3217773,2.1875,0.9057617  C23.6943359,17.0395508,23.6943359,19.0019531,22.4892578,20.2080078z M22.4892578,82.7182617  c-1.1679688,1.1679688-3.2060547,1.1679688-4.3740234,0c-0.5839844-0.5844727-0.90625-1.3613281-0.90625-2.1870117  c0-0.8261719,0.3222656-1.6025391,0.90625-2.1870117c0.5839844-0.5839844,1.3603516-0.9057617,2.1865234-0.9057617  s1.6035156,0.3217773,2.1875,0.9057617C23.6943359,79.5498047,23.6943359,81.512207,22.4892578,82.7182617z M77.2255859,78.3442383  c0.5839844-0.5839844,1.3603516-0.9057617,2.1865234-0.9057617s1.6025391,0.3217773,2.1865234,0.9057617  c0.5839844,0.5844727,0.90625,1.3608398,0.90625,2.1870117c0,0.8256836-0.3222656,1.6025391-0.90625,2.1870117  c-1.1679688,1.1679688-3.2050781,1.1679688-4.3730469,0c-0.5839844-0.5844727-0.90625-1.3613281-0.90625-2.1870117  C76.3193359,79.7050781,76.6416016,78.9287109,77.2255859,78.3442383z M70.6162109,70.0205078H29.3613281V28.765625h41.2548828  V70.0205078z"/>
    <path d="M53.6912842,53.6807251c-0.3215942,0.6629639-0.4976196,0.7457886-1.1588745,0.7531738v-0.0031738h-0.0257568h-4.0748901  h-0.0256958v0.0031738c-0.6613159-0.0073853-0.8373413-0.09021-1.1589355-0.7531738l-1.447876-2.9680176  c-0.2045288-0.4120483-0.3578491-0.7035522-0.3578491-1.184082c0-0.5317993,0.1361084-0.8405151,0.3578491-1.303833  l1.4823608-2.9852295c0.3151245-0.6351318,0.4407959-0.7157593,1.1244507-0.7195435v0.0040283h0.0256958h4.0748901h0.0257568  v-0.0040283c0.6835938,0.0037842,0.8092651,0.0844116,1.1244507,0.7195435l0.6169434,1.2426147h1.8859253l-1.0033569-2.0314331  c-0.5792236-1.184082-1.3117676-1.6469727-2.6239624-1.6469727h-0.0257568h-1.1581421v-2.3485107h-0.0256958h-1.7072144h-0.0256348  v2.3485107h-1.1582031h-0.0256958c-1.3122559,0-2.0447998,0.4628906-2.6240234,1.6469727l-1.5675659,3.1738281  c-0.3406982,0.6859131-0.4767456,1.149231-0.4767456,1.9040527c0,0.6691284,0.170105,1.2181396,0.4598999,1.8015747  l1.567627,3.19104c0.5452271,1.1152344,1.277771,1.6297607,2.555542,1.6297607h0.0852661h0.0256958h1.1582031v2.1801147h0.0256348  h1.7072144h0.0256958V56.151001h1.1581421h0.0257568h0.0852661c1.27771,0,2.0103149-0.5145264,2.555481-1.6297607  l1.0891113-2.217041H54.362793L53.6912842,53.6807251z"/>
</svg>