<?xml version="1.0" encoding="UTF-8"?>
<svg width="128pt" height="128pt" version="1.1" viewBox="0 0 128 128" xmlns="http://www.w3.org/2000/svg">
 <path d="m121.34 70.527-6.9102-14.977v-7.168c0-17.922-14.336-32.383-32.258-32.383h-5.5039c-5.2461 0-10.496 1.2812-15.105 3.7109-4.7344-2.4336-10.113-3.7109-15.488-3.7109h-5.5039c-18.812-0.12891-34.176 15.23-34.176 34.047 0.12891 10.496 4.7383 20.352 12.801 27.008v35.07h73.602v-16.641h16.641c2.6875 0 4.8633-2.1758 4.8633-4.8633v-16.641h4.7344c1.2812 0 2.4336-1.1523 2.4336-2.4336 0.12891-0.37891 0-0.76172-0.12891-1.0195zm-98.559 38.016v-7.168h7.8086c1.0234 1.4062 2.9453 1.793 4.3516 0.76953 1.4062-1.0234 1.793-2.9453 0.76953-4.3516-1.0234-1.4062-2.9453-1.793-4.3516-0.76953-0.25781 0.25781-0.51172 0.51172-0.76953 0.76953h-7.8086v-5.375h7.8086c1.0234 1.4062 2.9453 1.793 4.3516 0.76953s1.793-2.9453 0.76953-4.3516c-1.0234-1.4062-2.9453-1.793-4.3516-0.76953-0.25781 0.25781-0.51172 0.51172-0.76953 0.76953h-7.8086v-13.57l-0.64062-0.51172c-7.5508-6.0156-11.902-15.105-12.031-24.703 0-16.895 13.695-30.465 30.594-30.594h5.3711c16.895 0 30.465 13.695 30.465 30.594v7.4258l6.1445 13.441c0.51172 1.0234 0 2.1758-1.0234 2.5586-0.25781 0.12891-0.51172 0.12891-0.76953 0.12891h-4.4805v17.281c0 2.4336-2.0469 4.4805-4.4805 4.4805h-17.023v13.055l-32.125-0.007813zm80.641-49.277c-1.9219 0-3.457-1.5352-3.457-3.457s1.5352-3.457 3.457-3.457 3.457 1.5352 3.457 3.457c-0.003906 1.918-1.5391 3.457-3.457 3.457zm-40.961-4.3555h7.2969v5.8867l-3.8398-2.3047h-3.3281zm-23.426-24.574c-9.8555 0-17.922 8.0625-17.922 17.922 0 9.8555 8.0625 17.922 17.922 17.922 9.8555 0 17.922-8.0625 17.922-17.922-0.12891-9.9844-8.0664-17.922-17.922-17.922zm14.207 16.129h-4.9922c-0.76953-3.7109-3.7109-6.7852-7.4258-7.4258v-4.9922c6.4023 0.76953 11.523 5.8906 12.418 12.418zm-12.414-3.7109c1.793 0.64062 3.1992 1.9219 3.7109 3.7109h-3.7109zm-3.7109 3.7109h-3.7109c0.51172-1.793 1.9219-3.1992 3.7109-3.7109zm0 3.582v3.7148c-1.793-0.64062-3.1992-1.9219-3.7109-3.7109zm3.582 0h3.7109c-0.64062 1.793-1.9219 3.0703-3.7109 3.7109zm-3.582-16v4.9922c-3.7109 0.76953-6.7852 3.7109-7.4258 7.4258h-4.9922c0.76953-6.5273 5.8906-11.648 12.418-12.418zm-12.418 16h4.9922c0.76953 3.7109 3.7109 6.6562 7.4258 7.4258v4.9922c-6.5273-0.76953-11.648-5.8906-12.418-12.418zm16 12.418v-4.9922c3.7109-0.76953 6.7852-3.7109 7.4258-7.4258h4.9922c-0.76953 6.5273-5.8906 11.648-12.418 12.418z" fill="#04252f"/>
</svg>
