<?xml version="1.0" encoding="UTF-8"?>
<svg width="128pt" height="128pt" version="1.1" viewBox="0 0 128 128" xmlns="http://www.w3.org/2000/svg">
 <g fill="#04252f">
  <path d="m68.48 3.1992c-19.711 0-37.121 10.238-47.23 25.602h0.25781c4.3516 0 8.4492 1.793 11.391 4.7344 7.9375-11.008 20.992-18.047 35.586-18.047 24.32 0 44.031 19.711 44.031 44.031 0 14.594-7.168 27.648-18.047 35.586 2.0469 1.9219 3.457 4.3516 4.2227 7.168 0.38281 1.5352 0.51172 2.9453 0.51172 4.4805 15.488-10.113 25.602-27.52 25.602-47.23-0.003907-30.98-25.219-56.324-56.324-56.324z"/>
  <path d="m88.574 53.375h-14.078v-18.559c0-3.457-2.8164-6.1445-6.1445-6.1445-3.457 0-6.1445 2.8164-6.1445 6.1445v24.832c0 3.457 2.8164 6.1445 6.1445 6.1445h20.098c3.457 0 6.1445-2.8164 6.1445-6.1445 0.125-3.457-2.6914-6.2734-6.0195-6.2734z"/>
  <path d="m85.375 101.38-17.406-8.9609c-2.4336-1.2812-5.5039-0.64062-7.168 1.5352l-6.3984 8.1914c-6.2734-3.3281-11.008-6.5273-16.512-12.031-5.8867-5.8867-8.9609-10.625-12.16-16.77l8.0625-6.2734c2.1758-1.6641 2.8164-4.7344 1.5352-7.168l-8.9609-17.281c-1.5352-3.0703-5.5039-4.0977-8.3203-2.1758l-11.137 7.4258c-2.5586 1.6641-4.0977 4.7344-3.8398 7.8086 0.25781 3.1992 0.64063 7.168 1.2812 9.9844 3.1992 12.414 11.008 25.215 21.887 36.098 10.879 10.879 23.68 18.688 36.098 21.887 2.8164 0.76953 6.7852 1.1523 9.9844 1.2812 3.0703 0.25781 6.1445-1.2812 7.8086-3.9688l7.168-11.266c2.1758-2.9375 1.1523-6.7812-1.9219-8.3164z"/>
 </g>
</svg>
