<?xml version="1.0" encoding="utf-8"?>
<svg viewBox="0 0 128 128" xmlns="http://www.w3.org/2000/svg">
  <g fill="#04252f" style="" transform="matrix(1.544944, 0, 0, 1.544944, -35.073669, -35.071106)">
    <path d="m104.24 49.023c-1.043-3.0664-3.0117-5.7344-5.6328-7.6367-2.625-1.9023-5.7695-2.9453-9.0078-2.9883-0.042968-3.2383-1.0859-6.3828-2.9883-9.0078-1.9023-2.6211-4.5703-4.5898-7.6367-5.6328-4.7188-1.5078-9.875-0.66016-13.863 2.2773-0.38281 0.28906-0.75391 0.59375-1.1133 0.91016l-0.29297-0.25781c-3.457-2.9375-8.0352-4.1992-12.508-3.4414-3.5469 0.67578-6.7539 2.5508-9.082 5.3086-2.332 2.7578-3.6445 6.2344-3.7188 9.8438-3.2383 0.042968-6.3828 1.0859-9.0078 2.9883-2.6211 1.9023-4.5898 4.5703-5.6328 7.6367-1.5078 4.7188-0.66016 9.875 2.2773 13.863 0.28906 0.38281 0.59375 0.75391 0.91016 1.1133-0.31641 0.35938-0.61719 0.73047-0.91016 1.1133-2.9375 3.9883-3.7852 9.1445-2.2773 13.863 1.043 3.0664 3.0117 5.7344 5.6328 7.6367 2.625 1.9023 5.7695 2.9453 9.0078 2.9883 0.074218 3.6094 1.3867 7.0859 3.7188 9.8438 2.3281 2.7578 5.5352 4.6328 9.082 5.3086 4.4688 0.74219 9.0352-0.51562 12.492-3.4414l0.29297-0.25781c0.35938 0.31641 0.73047 0.61719 1.1133 0.91016h0.003906c2.6445 1.957 5.8477 3.0078 9.1367 2.9961 1.6055-0.003907 3.2031-0.24609 4.7383-0.71875 3.0664-1.043 5.7344-3.0117 7.6367-5.6328 1.9023-2.625 2.9453-5.7695 2.9883-9.0078 3.2383-0.042968 6.3828-1.0859 9.0078-2.9883 2.6211-1.9023 4.5898-4.5703 5.6328-7.6367 1.5078-4.7188 0.66016-9.875-2.2773-13.863-0.28906-0.38281-0.59375-0.75391-0.91016-1.1133 0.32422-0.35938 0.62891-0.73047 0.91016-1.1133 2.9375-3.9883 3.7852-9.1445 2.2773-13.863zm-14.641 20.098c1.625 0 3.1562 0.77344 4.1211 2.0859 1.0039 1.3711 1.2773 3.1484 0.73047 4.7617-0.90234 2.1602-3.0664 3.5195-5.4023 3.3906-5.3516 0.007813-9.6836 4.3398-9.6914 9.6914 0.12891 2.3359-1.2305 4.5-3.3906 5.4023-1.6133 0.54688-3.3906 0.27344-4.7617-0.73047-1.3125-0.96484-2.0859-2.4961-2.0859-4.1211v-3.8398h-10.242v3.8398c0 1.5117-0.66797 2.9492-1.8281 3.9258-1.1641 0.97266-2.6953 1.3828-4.1875 1.1172-2.5547-0.62891-4.3164-2.9648-4.2227-5.5938-0.007813-5.3516-4.3398-9.6836-9.6914-9.6914-2.3359 0.12891-4.5-1.2305-5.4023-3.3906-0.54688-1.6133-0.27344-3.3906 0.73047-4.7617 0.96484-1.3125 2.4961-2.0859 4.1211-2.0859h10.238l0.003906-10.242h-10.242c-1.625 0-3.1562-0.77344-4.1211-2.0859-1.0039-1.3711-1.2773-3.1484-0.73047-4.7617 0.90234-2.1602 3.0664-3.5195 5.4023-3.3906 5.3516-0.007813 9.6836-4.3398 9.6914-9.6914-0.09375-2.6289 1.668-4.9648 4.2227-5.5938 1.4922-0.26562 3.0234 0.14453 4.1875 1.1172 1.1602 0.97656 1.8281 2.4141 1.8281 3.9258v3.8398h10.238l0.003906-3.8398c0-1.625 0.77344-3.1562 2.0859-4.1211 1.3711-1.0039 3.1484-1.2773 4.7617-0.73047 2.1602 0.90234 3.5195 3.0664 3.3906 5.4023 0.007813 5.3516 4.3398 9.6836 9.6914 9.6914 2.3359-0.12891 4.5 1.2305 5.4023 3.3906 0.54688 1.6133 0.27344 3.3906-0.73047 4.7617-0.96484 1.3125-2.4961 2.0859-4.1211 2.0859h-10.242v10.238z"/>
    <path d="m58.879 67.84h10.238v10.238h-10.238z"/>
    <path d="m58.879 49.922h10.238v10.238h-10.238z"/>
  </g>
</svg>