<?xml version="1.0" encoding="UTF-8"?>
<svg width="128pt" height="128pt" version="1.1" viewBox="0 0 128 128" xmlns="http://www.w3.org/2000/svg">
 <g fill="#04252f">
  <path d="m57.656 92.809c-1.0742 0-2.1094-0.20703-3.1055-0.66016v23.547c0 5.1211 4.1602 9.2617 9.2812 9.2617 5.1016 0 9.2617-4.1406 9.2617-9.2617l-0.003906-23.543c-0.90234 0.41406-2.0156 0.66016-3.125 0.66016z"/>
  <path d="m63.832 86.918c-0.64062 0-1.2617 0-1.8828-0.039063-0.56641-0.019531-1.1875-0.054687-1.7891-0.11328-3.2383-0.28125-6.418-0.92188-9.4688-1.9219l1.0352 2.5586c0.62109 1.5234 1.7695 2.7305 3.2188 3.3867 0.84766 0.39453 1.7695 0.60156 2.7109 0.60156h12.309c0.96094 0 1.8828-0.20703 2.6914-0.60156 1.4883-0.66016 2.6367-1.8633 3.2578-3.3867l1.0156-2.543c-3.5938 1.1875-7.3594 1.8633-11.238 2.0156-0.59766 0.042969-1.2188 0.042969-1.8594 0.042969"/>
  <path d="m63.832 12.961c11.539 0 22.137 6.418 27.578 16.488l8.9805-4.2344c-2.3359-4.4219-5.4023-8.3594-9.1875-11.746-7.5117-6.7031-17.227-10.391-27.371-10.43-17.617 0-33.355 11.371-39.02 27.934l9.5625 2.7109c4.4375-12.328 16.262-20.723 29.457-20.723"/>
  <path d="m94.645 38.844c0.33984 1.7891 0.48828 3.6133 0.48828 5.457 0 17.262-14.043 31.324-31.305 31.324-17.281 0-31.32-14.062-31.32-31.324 0-0.30078 0-0.58203 0.019532-0.86719l-9.7695-2.7852c-0.11328 1.2031-0.16797 2.4297-0.16797 3.6523 0 10.07 3.6719 19.785 10.371 27.332 4.3281 4.8945 9.8438 8.7539 15.961 11.105 0.45312 0.16797 0.92188 0.35938 1.3555 0.46875 3.2188 1.1484 6.5898 1.8633 10.016 2.1445 0.58203 0.054688 1.168 0.09375 1.75 0.11328 0.58203 0.039062 1.1875 0.039062 1.7891 0.039062 0.60156 0 1.2031 0 1.8086-0.039062 4.0469-0.16797 7.9805-0.92188 11.688-2.2227 0.45312-0.15234 0.90234-0.32031 1.3945-0.50781 15.719-6.0781 26.297-21.535 26.336-38.438 0-3.332-0.39453-6.6055-1.1875-9.8086z"/>
  <path d="m71.699 40.312c0.054687 0.054688 0.11328 0.11328 0.16797 0.1875 1.4492 1.7695 2.2578 4.0664 2.2578 6.418v0.039062l34.031-16.055c-1.7148-1.6758-2.8242-3.9141-3.0664-6.3438z"/>
  <path d="m53.535 47.859c-0.019531-0.24609-0.039062-0.58203-0.039062-0.94141 0-2.1094 0.62109-4.1211 1.8086-5.7969 0 0 0-0.019532 0.019531-0.019532l-32.395-9.2031c0.019531 0.15234 0 0.32031-0.019532 0.45312-0.054687 2.1289-0.96094 4.3867-2.5039 6.1562l33.129 9.4492z"/>
  <path d="m56.453 41.93c-1.0156 1.4492-1.543 3.1797-1.543 4.9883 0 0.32031 0.019532 0.64062 0.039063 0.94141 0 0.074219 0.019531 0.13281 0.039062 0.1875 0.54688 4.4609 4.3086 7.8125 8.8281 7.8125 4.8359 0 8.7539-3.8008 8.8828-8.5469 0.019531-0.13281 0.019531-0.24609 0.019531-0.39453 0-2.0312-0.69531-4.0078-1.957-5.5547-1.6758-2.1289-4.2148-3.3516-6.9453-3.3516-2.9766 0.003906-5.7266 1.4727-7.3633 3.918"/>
  <path d="m21.535 31.727c0-4.9141-3.9922-8.9219-8.9023-8.9219-4.9141 0-8.9062 4.0117-8.9062 8.9219 0 4.9336 3.9922 8.9219 8.9023 8.9219 2.4648 0 4.8008-1.0156 6.457-2.8047 0.039062-0.019531 0.074218-0.054688 0.11328-0.09375 1.4297-1.5625 2.2578-3.5938 2.3164-5.5898 0.019531-0.13281 0.019531-0.30078 0.019531-0.43359"/>
  <path d="m115.37 14.598c-4.9141 0-8.9023 4.0078-8.9023 8.9219 0 0.30078 0.019531 0.58203 0.039062 0.90234 0.20703 2.0898 1.168 4.0469 2.6719 5.4961 1.6172 1.6016 3.8789 2.5234 6.1914 2.5234 4.9141 0 8.9023-4.0078 8.9023-8.9219 0-4.9141-3.9922-8.9219-8.9023-8.9219"/>
 </g>
</svg>
